:SAMPLES-PER-SECOND 30
:FULLY-SPECIFIED
:DEGREES
382
root  -46.1418 34.1724 12.1443 -177.152 54.4169 171.945
RightUpLeg  -21.8406 -18.2043 -7.5088
RightLeg  66.2896 -3.04059 -5.9765
RightFoot  12.949 0.218571 -1.35358
RightToes  -26.9727 -0.12364 -0.230385
Spine  -1.50316 0.103398 -2.32231
Spine1  -3.0054 0.192934 -3.89219
HEad  -74.8988 4.40762 5.3337
LeftShoulder1  -1.94126e-019 -3.10601e-018 -2.51263e-017
LeftArm  -8.91492 21.0882 -73.6383
LeftForeArm  21.5453 -43.2036 -9.06377
LeftHand  -0.33012 -0.0928075 7.05641
RightShoulder  -4.96962e-017 0 -2.36833e-017
RightArm  -12.8256 -15.2581 74.6341
RightForeArm  52.8299 36.5788 5.25493
RightHand  -0.287512 3.35515 -4.0593
LeftUpLeg  -22.7789 -5.30683 -7.42463
LeftLeg  20.8373 15.6364 4.75341
LeftFoot  2.3637 -0.014235 0.851577
LeftToes  -8.21087 1.87998e-006 4.79886e-008
383
root  -45.0661 34.4006 11.3239 -176.44 54.3983 173.492
RightUpLeg  -25.7828 -18.3274 -4.57099
RightLeg  64.9323 -1.63583 -3.10195
RightFoot  10.6984 0.0995984 -0.509812
RightToes  -28.4613 -0.13347 -0.24113
Spine  -1.44884 0.00365172 -1.94318
Spine1  -2.86576 -0.00306635 -3.13301
HEad  -74.2949 4.49177 5.13394
LeftShoulder1  -1.94126e-019 -3.10601e-018 -2.51263e-017
LeftArm  -8.83469 19.8702 -71.0929
LeftForeArm  22.9696 -47.6413 -10.6349
LeftHand  -0.360146 -0.241602 7.50564
RightShoulder  -4.96962e-017 0 -2.36833e-017
RightArm  -9.79652 -13.9026 72.0373
RightForeArm  53.5493 44.6472 7.49504
RightHand  -0.289292 3.91221 -3.87419
LeftUpLeg  -19.3649 -4.8768 -6.84896
LeftLeg  19.501 15.3919 4.29795
LeftFoot  1.0779 -0.00285387 0.464973
LeftToes  -7.26665 1.87998e-006 4.79886e-008
384
root  -44.0099 34.5904 10.606 -175.364 54.8037 176.061
RightUpLeg  -28.4652 -17.5361 -1.015
RightLeg  60.1204 -1.47288 -2.30995
RightFoot  7.00329 0.0441393 -0.174813
RightToes  -27.0542 -0.124171 -0.23098
Spine  -1.26113 0.149841 -1.33476
Spine1  -2.47397 0.336251 -1.94233
HEad  -73.4724 4.52699 5.24751
LeftShoulder1  -1.94126e-019 -3.10601e-018 -2.51263e-017
LeftArm  -9.06135 17.5575 -68.4505
LeftForeArm  23.8474 -52.5551 -12.8167
LeftHand  -0.379001 -0.00196541 8.2249
RightShoulder  -4.96962e-017 0 -2.36833e-017
RightArm  -9.07248 -11.7171 68.4319
RightForeArm  54.5195 52.4165 10.3221
RightHand  -0.339331 4.48455 -4.27181
LeftUpLeg  -15.7716 -2.85893 -5.69955
LeftLeg  18.3558 14.3477 3.71017
LeftFoot  -0.295131 -0.000214228 0.0782779
LeftToes  -6.02851 1.87998e-006 4.79886e-008
385
root  -43.0931 34.6505 9.95154 -175.113 56.2411 177.301
RightUpLeg  -30.8692 -15.1585 1.43026
RightLeg  52.7856 -2.05919 -2.43302
RightFoot  5.05445 0.0286878 -0.10484
RightToes  -26.4253 -0.120096 -0.22637
Spine  -1.14679 0.638401 -0.992134
Spine1  -2.22801 1.35901 -1.2931
HEad  -72.8187 4.70382 5.3801
LeftShoulder1  -1.94126e-019 -3.10601e-018 -2.51263e-017
LeftArm  -10.1006 14.4377 -65.3852
LeftForeArm  25.4885 -57.9491 -15.884
LeftHand  -0.401398 0.265438 9.13877
RightShoulder  -4.96962e-017 0 -2.36833e-017
RightArm  -9.5616 -8.65215 64.0993
RightForeArm  54.8557 60.8877 15.0113
RightHand  -0.344632 3.09425 -4.94696
LeftUpLeg  -12.833 -0.128403 -5.22182
LeftLeg  17.6606 13.4329 3.30722
LeftFoot  -1.95867 -0.00833622 -0.326121
LeftToes  -4.56682 1.87998e-006 4.79886e-008
386
root  -42.0547 34.6254 9.16552 -174.5 55.5668 178.474
RightUpLeg  -31.4347 -15.3176 3.18482
RightLeg  41.921 -2.13949 -1.71269
RightFoot  6.03697 0.0346765 -0.1131
RightToes  -29.7426 -0.142152 -0.250173
Spine  -1.15315 0.472095 -0.628306
Spine1  -2.19023 1.07906 -0.59011
HEad  -72.5244 4.89187 5.5105
LeftShoulder1  -1.94126e-019 -3.10601e-018 -2.51263e-017
LeftArm  -11.8597 11.2098 -62.0852
LeftForeArm  29.1702 -64.2136 -20.9459
LeftHand  -0.431308 0.604206 10.4822
RightShoulder  -4.96962e-017 0 -2.36833e-017
RightArm  -12.0233 -5.36587 58.9866
RightForeArm  58.0368 69.1739 23.1705
RightHand  -0.364006 1.88021 -5.98552
LeftUpLeg  -10.4282 -0.679601 -4.71595
LeftLeg  17.8117 13.5152 3.36445
LeftFoot  -4.08268 -0.0363573 -0.858465
LeftToes  -2.90718 1.87998e-006 4.79886e-008
387
root  -41.0303 34.485 8.40281 -174.094 54.6241 178.897
RightUpLeg  -30.9906 -15.453 4.13023
RightLeg  28.5238 -0.764069 -0.362108
RightFoot  7.8494 0.0337113 0.0453176
RightToes  -31.1795 -0.152127 -0.260079
Spine  -1.29419 0.287528 -0.414477
Spine1  -2.41572 0.763145 -0.180077
HEad  -72.5342 4.88484 5.70133
LeftShoulder1  -1.94126e-019 -3.10601e-018 -2.51263e-017
LeftArm  -14.7479 7.60757 -58.6827
LeftForeArm  36.0079 -70.2854 -29.0113
LeftHand  -0.435688 0.940712 11.3575
RightShoulder  -4.96962e-017 0 -2.36833e-017
RightArm  -16.1612 -1.47334 53.306
RightForeArm  69.4398 76.1398 38.3984
RightHand  -0.349957 0.693162 -6.77621
LeftUpLeg  -9.28493 -1.0305 -4.59182
LeftLeg  19.5316 13.2316 3.71531
LeftFoot  -6.60953 -0.0938239 -1.46319
LeftToes  -1.03518 1.87998e-006 4.79886e-008
388
root  -40.0057 34.2129 7.68609 -173.32 53.512 179.376
RightUpLeg  -29.9407 -14.0885 4.24268
RightLeg  15.4694 2.06482 0.4306
RightFoot  8.43662 0.00528643 0.449795
RightToes  -33.0235 -0.165286 -0.272421
Spine  -1.50747 0.245631 -0.22508
Spine1  -2.78615 0.744037 0.172394
HEad  -72.7079 4.2543 5.94488
LeftShoulder1  -1.94126e-019 -3.10601e-018 -2.51263e-017
LeftArm  -18.3212 3.40811 -55.3721
LeftForeArm  48.7877 -75.6058 -42.8905
LeftHand  -0.461757 1.08587 12.4332
RightShoulder  -4.96962e-017 0 -2.36833e-017
RightArm  -22.0881 2.41987 46.7794
RightForeArm  94.8835 80.3578 65.5865
RightHand  -0.384807 -0.299657 -8.79225
LeftUpLeg  -9.65829 0.05293 -4.22666
LeftLeg  23.4587 11.6033 4.13312
LeftFoot  -9.94361 -0.189174 -2.01279
LeftToes  1.07077 1.87998e-006 4.79886e-008
389
root  -38.914 33.8692 6.99824 -172.533 52.4106 -179.805
RightUpLeg  -29.0443 -11.8409 3.81658
RightLeg  7.30369 5.01166 0.318158
RightFoot  7.51656 -0.0179744 0.778996
RightToes  -33.0618 -0.165563 -0.272673
Spine  -1.61407 0.364939 0.0613567
Spine1  -2.96793 1.07032 0.676766
HEad  -72.9694 3.24863 5.96691
LeftShoulder1  -1.94126e-019 -3.10601e-018 -2.51263e-017
LeftArm  -22.3324 -1.3359 -52.2544
LeftForeArm  69.3593 -79.0043 -64.605
LeftHand  -0.432617 1.71268 13.5663
RightShoulder  -4.96962e-017 0 -2.36833e-017
RightArm  -29.2672 5.86673 39.4859
RightForeArm  123.484 81.0182 97.2213
RightHand  -0.344644 -1.698 -10.6809
LeftUpLeg  -10.3758 3.05489 -3.36899
LeftLeg  28.5321 9.32477 4.28727
LeftFoot  -12.8553 -0.2617 -2.16114
LeftToes  0.170729 1.87998e-006 4.79886e-008
390
root  -37.7695 33.4969 6.34977 -171.596 51.1711 -178.092
RightUpLeg  -28.2513 -7.92334 3.19139
RightLeg  6.40832 4.17266 0.199743
RightFoot  8.5313 -0.0178767 0.75006
RightToes  -32.4005 -0.160795 -0.268299
Spine  -1.43625 0.644428 0.532683
Spine1  -2.61261 1.80764 1.41288
HEad  -73.1704 2.08368 5.92807
LeftShoulder1  -1.94126e-019 -3.10601e-018 -2.51263e-017
LeftArm  -26.2144 -6.5563 -49.2503
LeftForeArm  93.669 -80.0218 -89.5775
LeftHand  -0.463522 1.78212 14.8212
RightShoulder  -4.96962e-017 0 -2.36833e-017
RightArm  -37.6885 8.82686 31.9126
RightForeArm  135.915 80.4083 111.151
RightHand  -0.271274 -3.07191 -13.1154
LeftUpLeg  -12.483 6.56819 -1.28572
LeftLeg  37.3301 6.78342 4.48944
LeftFoot  -13.0649 -0.212645 -1.69531
LeftToes  -11.6841 1.87998e-006 4.79886e-008
391
root  -36.6295 33.0528 5.85461 -170.015 50.1641 -175.283
RightUpLeg  -28.7211 -3.37308 3.50514
RightLeg  11.445 0.545512 0.0751588
RightFoot  14.9797 0.0271419 0.325176
RightToes  -30.5847 -0.147968 -0.256009
Spine  -1.08653 1.07232 1.4182
Spine1  -1.90898 2.91064 2.82289
HEad  -73.2977 1.2389 5.36563
LeftShoulder1  -1.94126e-019 -3.10601e-018 -2.51263e-017
LeftArm  -30.0029 -11.3633 -46.0033
LeftForeArm  113.844 -79.3897 -110.068
LeftHand  -0.476071 1.9663 16.03
RightShoulder  -4.96962e-017 0 -2.36833e-017
RightArm  -46.5502 11.3563 24.2499
RightForeArm  138.147 80.2762 113.444
RightHand  -0.193644 -4.03014 -15.5809
LeftUpLeg  -17.3141 10.6533 1.85945
LeftLeg  50.6922 5.4836 5.8439
LeftFoot  -6.66483 -0.0507057 -0.709281
LeftToes  -42.8883 1.87998e-006 4.79886e-008
392
root  -35.7804 32.6133 5.46137 -169.409 49.655 -173.852
RightUpLeg  -32.7152 -2.1728 4.19103
RightLeg  22.6299 0.488829 0.16413
RightFoot  12.5412 0.0239144 0.312933
RightToes  -25.0852 -0.111582 -0.216398
Spine  -0.376931 1.3559 2.0875
Spine1  -0.549465 3.58798 3.86568
HEad  -74.6577 0.813978 4.61809
LeftShoulder1  -1.94126e-019 -3.10601e-018 -2.51263e-017
LeftArm  -34.8263 -14.8696 -42.2174
LeftForeArm  127.472 -77.8545 -124.862
LeftHand  -0.462736 2.27525 17.0963
RightShoulder  -4.96962e-017 0 -2.36833e-017
RightArm  -55.5708 14.0537 17.1178
RightForeArm  135.449 80.472 110.85
RightHand  -0.0205225 -5.33657 -17.7644
LeftUpLeg  -24.1963 13.1864 3.06384
LeftLeg  64.1865 5.83231 10.1693
LeftFoot  1.27965 -0.00489324 0.599759
LeftToes  -44.9209 1.87998e-006 4.79886e-008
393
root  -35.1156 32.1529 4.9898 -170.593 49.0687 -174.983
RightUpLeg  -37.323 -4.52517 4.1627
RightLeg  34.4449 1.72632 1.01189
RightFoot  7.25911 0.00423717 0.451816
RightToes  -20.9108 -0.0865939 -0.184105
Spine  0.459038 1.14558 2.19444
Spine1  0.924201 3.10288 4.00098
HEad  -76.9986 0.805624 4.07487
LeftShoulder1  -1.94126e-019 -3.10601e-018 -2.51263e-017
LeftArm  -40.574 -15.8983 -37.986
LeftForeArm  136.476 -75.6423 -135.951
LeftHand  -0.463548 2.4509 18.1383
RightShoulder  -4.96962e-017 0 -2.36833e-017
RightArm  -64.1451 16.4988 10.9497
RightForeArm  135.296 80.4273 111.377
RightHand  0.0550516 -5.80061 -18.9049
LeftUpLeg  -30.2416 12.6766 1.61993
LeftLeg  70.9424 5.15698 12.0847
LeftFoot  -2.32927 -0.00824538 -0.244058
LeftToes  -19.917 1.87998e-006 4.79886e-008
